<svg xmlns="http://www.w3.org/2000/svg" viewBox="0 0 24 24" role="img" aria-label="Google">
  <!-- Simple multicolor "G" mark (SVG paths), used only as a login button icon. -->
  <path fill="#EA4335" d="M12 10.2v3.7h5.2c-.2 1.2-.9 2.2-2 2.9l3.1 2.4c1.8-1.7 2.8-4.1 2.8-7 0-.7-.1-1.3-.2-1.9H12z"/>
  <path fill="#34A853" d="M12 22c2.6 0 4.8-.9 6.4-2.4l-3.1-2.4c-.9.6-2 .9-3.3.9-2.5 0-4.6-1.7-5.4-4l-3.2 2.5C4.9 19.8 8.2 22 12 22z"/>
  <path fill="#4285F4" d="M6.6 14.1c-.2-.6-.3-1.3-.3-2.1s.1-1.4.3-2.1L3.4 7.4C2.9 8.4 2.6 9.7 2.6 12s.3 3.6.8 4.6l3.2-2.5z"/>
  <path fill="#FBBC05" d="M12 5.9c1.4 0 2.6.5 3.6 1.4l2.7-2.7C16.8 3.1 14.6 2 12 2 8.2 2 4.9 4.2 3.4 7.4l3.2 2.5c.8-2.3 2.9-4 5.4-4z"/>
</svg>


